<svg width="340" height="47" viewBox="0 0 340 47" fill="none" xmlns="http://www.w3.org/2000/svg">
<path d="M80.197 10.8083V35.4016C80.197 35.5889 80.0564 35.7763 79.8222 35.7763H77.2458C76.0747 35.7763 74.9504 35.1673 74.2946 34.1836L62.6772 16.2423L63.052 25.1895V35.4484C63.052 35.6358 62.9114 35.8232 62.6772 35.8232H59.3044C59.1171 35.8232 58.9297 35.6826 58.9297 35.4484V10.8083C58.9297 10.621 59.0702 10.4336 59.3044 10.4336H61.834C63.0051 10.4336 64.1294 11.0426 64.7852 12.0263L76.4026 29.9208L76.0278 20.9735V10.8083C76.0278 10.621 76.1684 10.4336 76.4026 10.4336H79.7754C80.0564 10.4336 80.197 10.5741 80.197 10.8083V10.8083Z" fill="#262626"/>
<path d="M108.606 35.7295H105.046C104.812 35.7295 104.624 35.4953 104.718 35.261L114.181 10.7615C114.274 10.5741 114.462 10.4336 114.649 10.4336H119.146C119.38 10.4336 119.568 10.5741 119.614 10.7615L129.124 35.261C129.218 35.4953 129.03 35.7295 128.796 35.7295H125.236C125.095 35.7295 124.955 35.6358 124.908 35.4953L117.272 15.3522C117.179 15.0712 116.71 15.0712 116.616 15.3522L108.981 35.4953C108.887 35.6358 108.747 35.7295 108.606 35.7295V35.7295Z" fill="#262626"/>
<path d="M151.912 35.1673L144.791 26.0796C148.82 25.3301 151.162 22.6131 151.162 18.444C151.162 13.6658 148.071 10.4336 142.543 10.4336H132.612C132.331 10.4336 132.097 10.6678 132.097 10.9489C132.097 12.8226 133.596 14.3217 135.469 14.3217H142.168C145.494 14.3217 147.087 16.0081 147.087 18.4908C147.087 20.9735 145.541 22.6599 142.168 22.6599H132.706C132.425 22.6599 132.19 22.8942 132.19 23.1752V35.3547C132.19 35.5421 132.331 35.7295 132.565 35.7295H135.938C136.125 35.7295 136.313 35.5889 136.313 35.3547V26.3138H140.201L146.384 34.371C147.04 35.261 148.071 35.7295 149.195 35.7295H151.771C151.959 35.7295 152.099 35.4016 151.912 35.1673V35.1673Z" fill="#262626"/>
<path d="M101.277 10.4336H85.5847C85.3036 10.4336 85.1162 10.621 85.1162 10.902C85.1162 12.7758 86.6621 14.3217 88.5358 14.3217H101.277C101.465 14.3217 101.652 14.1811 101.652 13.9469V10.7615C101.605 10.5741 101.465 10.4336 101.277 10.4336ZM101.277 31.8414H89.5664C89.379 31.8414 89.1917 31.7009 89.1917 31.4667V25.1427C89.1917 24.9553 89.3322 24.7679 89.5664 24.7679H100.387C100.575 24.7679 100.762 24.6274 100.762 24.3932V21.2078C100.762 21.0204 100.622 20.833 100.387 20.833H85.6315C85.3504 20.833 85.1162 21.0672 85.1162 21.3483V35.1673C85.1162 35.4484 85.3504 35.6826 85.6315 35.6826H101.277C101.465 35.6826 101.652 35.5421 101.652 35.3079V32.1225C101.605 31.9819 101.465 31.8414 101.277 31.8414V31.8414Z" fill="#262626"/>
<path d="M33.8215 4.15483L25.0148 17.2244C24.4058 18.1144 25.5769 19.1918 26.4201 18.4423L35.0863 10.9004C35.3205 10.713 35.6485 10.8536 35.6485 11.1815V34.7441C35.6485 35.072 35.2269 35.2126 35.0395 34.9783L8.80671 3.5927C7.96352 2.56213 6.74557 2 5.38709 2H4.4502C2.0143 2 0 4.0143 0 6.49705V39.6628C0 42.1455 2.0143 44.1598 4.49705 44.1598C6.04291 44.1598 7.49508 43.3635 8.33827 42.005L17.145 28.9354C17.754 28.0454 16.5829 26.968 15.7397 27.7175L7.07348 35.2126C6.83926 35.3999 6.51135 35.2594 6.51135 34.9315V11.4157C6.51135 11.0878 6.93295 10.9472 7.12032 11.1815L33.3531 42.5671C34.1963 43.5977 35.4611 44.1598 36.7727 44.1598H37.7096C40.1923 44.1598 42.2066 42.1455 42.2066 39.6628V6.49705C42.1598 4.0143 40.1455 2 37.6628 2C36.1169 2 34.6647 2.79635 33.8215 4.15483V4.15483Z" fill="#262626"/>
<path d="M180.988 36.432C179.188 36.432 177.556 36.084 176.092 35.388C174.652 34.668 173.5 33.576 172.636 32.112C171.796 30.648 171.376 28.788 171.376 26.532V10.8H175.192V26.568C175.192 28.776 175.72 30.396 176.776 31.428C177.832 32.46 179.26 32.976 181.06 32.976C182.836 32.976 184.252 32.46 185.308 31.428C186.364 30.396 186.892 28.776 186.892 26.568V10.8H190.708V26.532C190.708 28.788 190.264 30.648 189.376 32.112C188.512 33.576 187.336 34.668 185.848 35.388C184.384 36.084 182.764 36.432 180.988 36.432ZM195.459 36V18.144H198.843L199.131 21.276C199.683 20.172 200.487 19.308 201.543 18.684C202.623 18.036 203.859 17.712 205.251 17.712C207.411 17.712 209.103 18.384 210.327 19.728C211.575 21.072 212.199 23.076 212.199 25.74V36H208.419V26.136C208.419 22.68 207.003 20.952 204.171 20.952C202.755 20.952 201.579 21.456 200.643 22.464C199.731 23.472 199.275 24.912 199.275 26.784V36H195.459ZM218.853 14.76C218.133 14.76 217.533 14.544 217.053 14.112C216.597 13.656 216.369 13.092 216.369 12.42C216.369 11.748 216.597 11.196 217.053 10.764C217.533 10.308 218.133 10.08 218.853 10.08C219.573 10.08 220.161 10.308 220.617 10.764C221.097 11.196 221.337 11.748 221.337 12.42C221.337 13.092 221.097 13.656 220.617 14.112C220.161 14.544 219.573 14.76 218.853 14.76ZM216.945 36V18.144H220.761V36H216.945ZM230.803 36L224.107 18.144H228.103L233.071 32.364L238.039 18.144H241.999L235.339 36H230.803ZM252.573 36.432C250.821 36.432 249.261 36.048 247.893 35.28C246.549 34.488 245.493 33.396 244.725 32.004C243.957 30.612 243.573 28.992 243.573 27.144C243.573 25.272 243.945 23.628 244.689 22.212C245.457 20.796 246.513 19.692 247.857 18.9C249.225 18.108 250.809 17.712 252.609 17.712C254.361 17.712 255.885 18.108 257.181 18.9C258.477 19.668 259.485 20.7 260.205 21.996C260.925 23.292 261.285 24.72 261.285 26.28C261.285 26.52 261.273 26.784 261.249 27.072C261.249 27.336 261.237 27.636 261.213 27.972H247.317C247.437 29.7 248.001 31.02 249.009 31.932C250.041 32.82 251.229 33.264 252.573 33.264C253.653 33.264 254.553 33.024 255.273 32.544C256.017 32.04 256.569 31.368 256.929 30.528H260.745C260.265 32.208 259.305 33.612 257.865 34.74C256.449 35.868 254.685 36.432 252.573 36.432ZM252.573 20.844C251.301 20.844 250.173 21.228 249.189 21.996C248.205 22.74 247.605 23.868 247.389 25.38H257.469C257.397 23.988 256.905 22.884 255.993 22.068C255.081 21.252 253.941 20.844 252.573 20.844ZM265.244 36V18.144H268.664L268.988 21.528C269.612 20.352 270.476 19.428 271.58 18.756C272.708 18.06 274.064 17.712 275.648 17.712V21.708H274.604C273.548 21.708 272.6 21.888 271.76 22.248C270.944 22.584 270.284 23.172 269.78 24.012C269.3 24.828 269.06 25.968 269.06 27.432V36H265.244ZM286.048 36.432C283.792 36.432 281.932 35.88 280.468 34.776C279.004 33.672 278.164 32.208 277.948 30.384H281.8C281.992 31.2 282.448 31.908 283.168 32.508C283.888 33.084 284.836 33.372 286.012 33.372C287.164 33.372 288.004 33.132 288.532 32.652C289.06 32.172 289.324 31.62 289.324 30.996C289.324 30.084 288.952 29.472 288.208 29.16C287.488 28.824 286.48 28.524 285.184 28.26C284.176 28.044 283.168 27.756 282.16 27.396C281.176 27.036 280.348 26.532 279.676 25.884C279.028 25.212 278.704 24.312 278.704 23.184C278.704 21.624 279.304 20.328 280.504 19.296C281.704 18.24 283.384 17.712 285.544 17.712C287.536 17.712 289.144 18.192 290.368 19.152C291.616 20.112 292.348 21.468 292.564 23.22H288.892C288.772 22.452 288.412 21.852 287.812 21.42C287.236 20.988 286.456 20.772 285.472 20.772C284.512 20.772 283.768 20.976 283.24 21.384C282.712 21.768 282.448 22.272 282.448 22.896C282.448 23.52 282.808 24.012 283.528 24.372C284.272 24.732 285.244 25.056 286.444 25.344C287.644 25.608 288.748 25.92 289.756 26.28C290.788 26.616 291.616 27.12 292.24 27.792C292.864 28.464 293.176 29.448 293.176 30.744C293.2 32.376 292.564 33.732 291.268 34.812C289.996 35.892 288.256 36.432 286.048 36.432ZM299.502 14.76C298.782 14.76 298.182 14.544 297.702 14.112C297.246 13.656 297.018 13.092 297.018 12.42C297.018 11.748 297.246 11.196 297.702 10.764C298.182 10.308 298.782 10.08 299.502 10.08C300.222 10.08 300.81 10.308 301.266 10.764C301.746 11.196 301.986 11.748 301.986 12.42C301.986 13.092 301.746 13.656 301.266 14.112C300.81 14.544 300.222 14.76 299.502 14.76ZM297.594 36V18.144H301.41V36H297.594ZM313.935 36C312.183 36 310.791 35.58 309.759 34.74C308.727 33.876 308.211 32.352 308.211 30.168V21.348H305.151V18.144H308.211L308.679 13.608H312.027V18.144H317.067V21.348H312.027V30.168C312.027 31.152 312.231 31.836 312.639 32.22C313.071 32.58 313.803 32.76 314.835 32.76H316.887V36H313.935ZM323.09 43.92L327.374 34.524H326.33L319.274 18.144H323.414L328.886 31.356L334.61 18.144H338.642L327.122 43.92H323.09Z" fill="#262626"/>
</svg>
